# xmcd CD database file
#
# Track frame offsets:
#	182
#	19140
#	31517
#	40870
#	55085
#	70197
#	85300
#	96125
#	110062
#	130432
#	144410
#	159160
#	172215
#
# Disc length: 2526 seconds
#
# Revision: 0
# Processed by: cddbd v1.5.1PL0 Copyright (c) Steve Scherf et al.
# Submitted via: CDex 1.50beta9
#
DISCID=a909dc0d
DTITLE=Louis Prima - Remember
DYEAR=1900
DGENRE=Blues
TTITLE0=Robin Hood
TTITLE1=Saint Louis Blues
TTITLE2=I´ll Walk Alone
TTITLE3=Angelina
TTITLE4=Some Sunday Morning
TTITLE5=I Don`t Wanna Be Loved
TTITLE6=You  Gotta See Baby Tonight
TTITLE7=The White Cliffs of Dover
TTITLE8=Just a Gigolo - I ain´t Got Nobody
TTITLE9=Felicia No Capecia
TTITLE10=Please No Squeeza Da Banana
TTITLE11=Hitsum Kitsum Bumpity Itsum
TTITLE12=I Was Here When You Left Me
EXTD=
EXTT0=
EXTT1=
EXTT2=
EXTT3=
EXTT4=
EXTT5=
EXTT6=
EXTT7=
EXTT8=
EXTT9=
EXTT10=
EXTT11=
EXTT12=
PLAYORDER=
